<svg xmlns="http://www.w3.org/2000/svg" width="17" height="17" fill="none" xmlns:v="https://vecta.io/nano"><g clip-path="url(#A)"><path fill-rule="evenodd" d="M2.405 2.405A.7.7 0 0 1 2.9 2.2h6.3a.7.7 0 0 1 .7.7v.7a.7.7 0 0 0 1.4 0v-.7A2.1 2.1 0 0 0 9.2.8H2.9A2.1 2.1 0 0 0 .8 2.9v6.3a2.1 2.1 0 0 0 2.1 2.1h.7a.7.7 0 0 0 0-1.4h-.7a.7.7 0 0 1-.7-.7V2.9a.7.7 0 0 1 .205-.495zM7.1 7.8a.7.7 0 0 1 .7-.7h6.3a.7.7 0 0 1 .7.7v6.3a.7.7 0 0 1-.7.7H7.8a.7.7 0 0 1-.7-.7V7.8zm.7-2.1a2.1 2.1 0 0 0-2.1 2.1v6.3a2.1 2.1 0 0 0 2.1 2.1h6.3a2.1 2.1 0 0 0 2.1-2.1V7.8a2.1 2.1 0 0 0-2.1-2.1H7.8z" fill="#0024b3"/></g><defs><clipPath id="A"><path fill="#fff" transform="translate(.1 .1)" d="M0 0h16.8v16.8H0z"/></clipPath></defs></svg>